<?xml version="1.0" encoding="UTF-8"?>
<svg width="24px" height="24px" viewBox="0 0 24 24" version="1.1" xmlns="http://www.w3.org/2000/svg" xmlns:xlink="http://www.w3.org/1999/xlink" style="background: #FFFFFF;">
    <!-- Generator: Sketch 46.1 (44463) - http://www.bohemiancoding.com/sketch -->
    <title>icon/ic_cross_street</title>
    <desc>Created with Sketch.</desc>
    <defs></defs>
    <g id="Symbols" stroke="none" stroke-width="1" fill="none" fill-rule="evenodd">
        <g id="icon/ic_cross_street">
            <g id="ic_cross_street">
                <rect id="boundry" x="0" y="0" width="24" height="24"></rect>
                <rect id="Rectangle-42" fill="#333333" x="9" y="3" width="2" height="5" rx="0.5"></rect>
                <rect id="Rectangle-42" fill="#333333" x="9" y="16" width="2" height="5" rx="0.5"></rect>
                <rect id="Rectangle-42" fill="#333333" x="14" y="3" width="2" height="3" rx="0.5"></rect>
                <rect id="Rectangle-42" fill="#333333" x="14" y="8" width="2" height="3" rx="0.5"></rect>
                <rect id="Rectangle-42" fill="#333333" x="14" y="13" width="2" height="3" rx="0.5"></rect>
                <rect id="Rectangle-42" fill="#333333" x="14" y="18" width="2" height="3" rx="0.5"></rect>
                <rect id="Rectangle-42" fill="#333333" x="19" y="3" width="2" height="18" rx="0.5"></rect>
                <rect id="Rectangle-57" fill="#333333" x="3" y="6" width="7" height="2" rx="0.5"></rect>
                <rect id="Rectangle-57" fill="#333333" x="8" y="11" width="3" height="2" rx="0.5"></rect>
                <rect id="Rectangle-57" fill="#333333" x="3" y="11" width="3" height="2" rx="0.5"></rect>
                <rect id="Rectangle-57" fill="#333333" x="3" y="16" width="7" height="2" rx="0.5"></rect>
            </g>
        </g>
    </g>
</svg>