<?xml version="1.0" encoding="UTF-8"?>
<svg width="24px" height="24px" viewBox="0 0 24 24" version="1.1" xmlns="http://www.w3.org/2000/svg" xmlns:xlink="http://www.w3.org/1999/xlink" style="background: #FFFFFF;">
    <!-- Generator: Sketch 46.1 (44463) - http://www.bohemiancoding.com/sketch -->
    <title>icon/ic_chef</title>
    <desc>Created with Sketch.</desc>
    <defs></defs>
    <g id="Symbols" stroke="none" stroke-width="1" fill="none" fill-rule="evenodd">
        <g id="icon/ic_chef" fill-rule="nonzero" fill="#333333">
            <g id="ic_chef" transform="translate(3.000000, 3.000000)">
                <g id="path0_stroke">
                    <path d="M9,2 C10.74753,2 11.2909,2.52203 11.5663,2.90067 C11.7569,3.15266 11.8773,3.44336 12.0477,3.77663 C12.1995,4.07263 12.4802,4.60816 13.0528,4.89443 L13.9472,3.10557 C14.0198,3.14184 13.988,3.17737 13.8273,2.864 C13.6852,2.58789 13.4931,2.15984 13.1837,1.724328 C12.4591,0.72797 11.2525,0 9,0 L9,2 Z M13.0528,4.89443 C13.3931,5.05914 13.813,5.17853 14.1705,5.29042 C14.531,5.40297 14.8325,5.50244 15.1211,5.67628 C15.5714,5.93891 16,6.36421 16,7.5 L18,7.5 C18,5.63579 17.1786,4.56109 16.1289,3.94872 C15.6675,3.68506 15.1565,3.50328 14.767,3.38146 C14.3745,3.25897 14.1069,3.19086 13.9472,3.10557 L13.0528,4.89443 Z M16,7.5 C16,8.58594 15.4906,9.2061 14.8598,9.73178 C14.5267,10.01122 14.1517,10.26122 13.8286,10.52865 C13.5618,10.75096 13,11.2399 13,12 L15,12 C15,12.2601 14.8132,12.3115 15.1089,12.0651 C15.3483,11.8638 15.7233,11.6138 16.1402,11.2682 C17.0094,10.5439 18,9.41406 18,7.5 L16,7.5 Z M13.5793,16 L4.49999,16 L4.49999,18 L13.5793,18 L13.5793,16 Z M4.99999,12 C4.99999,11.2399 4.4382,10.75097 4.17142,10.52866 C3.84829,10.26122 3.47329,10.01122 3.14018,9.73178 C2.50937,9.20611 2,8.58594 2,7.5 L0,7.5 C0,9.41406 0.99061891,10.54389 1.859807,11.2682 C2.2767,11.6138 2.65169,11.8638 2.89105,12.0651 C3.18677,12.3115 2.99999,12.2601 2.99999,12 L4.99999,12 Z M2,7.5 C2,6.36421 2.42864,5.93891 2.87887,5.67628 C3.16747,5.50244 3.46898,5.40297 3.82952,5.29042 C4.18699,5.17853 4.6069,5.05914 4.94721,4.89443 L4.05279,3.10557 C3.8931,3.19086 3.62551,3.25897 3.23298,3.38146 C2.84352,3.50328 2.33253,3.68506 1.871129,3.94872 C0.821361,4.56109 0,5.63579 0,7.5 L2,7.5 Z M4.94721,4.89443 C5.51975,4.60816 5.80052,4.07263 5.95232,3.77663 C6.12265,3.44336 6.24309,3.15266 6.43374,2.90067 C6.70911,2.52203 7.25247,2 9,2 L9,0 C6.74753,0 5.54089,0.72797 4.81626,1.724328 C4.50691,2.15984 4.31485,2.58789 4.17268,2.864 C4.01198,3.17737 3.98025,3.14184 4.05279,3.10557 L4.94721,4.89443 Z M4.99999,16.5 L4.99999,13 L2.99999,13 L2.99999,16.5 L4.99999,16.5 Z M4.99999,13 L4.99999,12 L2.99999,12 L2.99999,13 L4.99999,13 Z M13,12 C13,12.5 13,12.75 13,12.875 C13,12.9375 13,12.9688 13,12.9844 C13,12.9922 13,12.9961 13,12.998 C13,12.999 13,12.9995 13,12.9998 C13,12.9999 13,12.9999 13,13 C13,13 13,13 13,13 C13,13 13,13 13,13 C13,13 13,13 13,13 C13,13 13,13 13,13 C13,13 14,13 14,13 C14,13 15,13 15,13 C15,13 15,13 15,13 C15,13 15,13 15,13 C15,13 15,13 15,13 C15,13 15,13 15,13 C15,12.9999 15,12.9999 15,12.9998 C15,12.9995 15,12.999 15,12.998 C15,12.9961 15,12.9922 15,12.9844 C15,12.9688 15,12.9375 15,12.875 C15,12.75 15,12.5 15,12 L13,12 Z M13.0002,13.0227 L13.0794,16.5113 L15.0789,16.466 L14.9997,12.9773 L13.0002,13.0227 Z M3.99999,14 L14,14 L14,12 L3.99999,12 L3.99999,14 Z M13.5793,18 C14.4211,18 15.098,17.3075 15.0789,16.466 L13.0794,16.5113 C13.0731,16.2308 13.2987,16 13.5793,16 L13.5793,18 Z M4.49999,16 C4.77613,16 4.99999,16.2239 4.99999,16.5 L2.99999,16.5 C2.99999,17.3284 3.67156,18 4.49999,18 L4.49999,16 Z"></path>
                </g>
            </g>
        </g>
    </g>
</svg>