<?xml version="1.0" encoding="UTF-8"?>
<svg width="22px" height="22px" viewBox="0 0 22 22" version="1.1" xmlns="http://www.w3.org/2000/svg" xmlns:xlink="http://www.w3.org/1999/xlink">
    <!-- Generator: Sketch 49.3 (51167) - http://www.bohemiancoding.com/sketch -->
    <title>ic_location_gray</title>
    <desc>Created with Sketch.</desc>
    <defs></defs>
    <g id="ic_location_gray" stroke="none" stroke-width="1" fill="none" fill-rule="evenodd">
        <g id="Group-39-Copy-4" transform="translate(-1.000000, -1.000000)">
            <rect id="boundry" x="0" y="0" width="24" height="24"></rect>
            <g id="location" transform="translate(4.000000, 2.000000)" fill="#D8D9DB" fill-rule="nonzero">
                <path d="M8,0 C12.418278,0 16,3.581722 16,8 C16,10.8133333 13.5666667,14.59 8.7,19.33 C8.3111565,19.7111429 7.6888435,19.7111429 7.3,19.33 C2.43333333,14.59 0,10.8133333 0,8 C0,3.581722 3.581722,0 8,0 Z M8,2 C4.6862915,2 2,4.6862915 2,8 C2,9.21 2.8,12 8,17.21 C13.2,12 14,9.21 14,8 C14,4.6862915 11.3137085,2 8,2 Z M8,5 C9.6568542,5 11,6.34314575 11,8 C11,9.6568542 9.6568542,11 8,11 C6.3431458,11 5,9.6568542 5,8 C5,6.34314575 6.3431458,5 8,5 Z M8,7 C7.4477153,7 7,7.44771525 7,8 C7,8.5522847 7.4477153,9 8,9 C8.5522847,9 9,8.5522847 9,8 C9,7.44771525 8.5522847,7 8,7 Z" id="path-1"></path>
            </g>
        </g>
    </g>
</svg>