<?xml version="1.0" encoding="UTF-8"?>
<svg width="24px" height="24px" viewBox="0 0 24 24" version="1.1" xmlns="http://www.w3.org/2000/svg" xmlns:xlink="http://www.w3.org/1999/xlink" style="background: #FFFFFF;">
    <!-- Generator: Sketch 46.1 (44463) - http://www.bohemiancoding.com/sketch -->
    <title>icon/ic_new_window</title>
    <desc>Created with Sketch.</desc>
    <defs></defs>
    <g id="Symbols" stroke="none" stroke-width="1" fill="none" fill-rule="evenodd">
        <g id="icon/ic_new_window">
            <g id="ic_new_window">
                <rect id="boundary" x="0" y="0" width="24" height="24"></rect>
                <path d="M19.5,4 L14.5,4 C14.2238576,4 14,4.22385763 14,4.5 L14,5.5 C14,5.77614237 14.2238576,6 14.5,6 L16.59,6 L10.76,11.83 C10.6653437,11.9238833 10.6121008,12.0516812 10.6121008,12.185 C10.6121008,12.3183188 10.6653437,12.4461167 10.76,12.54 L11.47,13.25 C11.5638833,13.3446563 11.6916812,13.3978992 11.825,13.3978992 C11.9583188,13.3978992 12.0861167,13.3446563 12.18,13.25 L18,7.41 L18,9.5 C18,9.77614237 18.2238576,10 18.5,10 L19.5,10 C19.7761424,10 20,9.77614237 20,9.5 L20,4.5 C20,4.22385763 19.7761424,4 19.5,4 Z" id="Shape" fill="#333333" fill-rule="nonzero"></path>
                <path d="M19.5,14 L18.5,14 C18.2238576,14 18,14.2238576 18,14.5 L18,18 L6,18 L6,6 L9.5,6 C9.77614237,6 10,5.77614237 10,5.5 L10,4.5 C10,4.22385763 9.77614237,4 9.5,4 L6,4 C4.8954305,4 4,4.8954305 4,6 L4,18 C4,19.1045695 4.8954305,20 6,20 L18,20 C19.1045695,20 20,19.1045695 20,18 L20,14.5 C20,14.2238576 19.7761424,14 19.5,14 Z" id="Shape" fill="#333333" fill-rule="nonzero"></path>
            </g>
        </g>
    </g>
</svg>