<?xml version="1.0" encoding="UTF-8"?>
<svg width="24px" height="24px" viewBox="0 0 24 24" version="1.1" xmlns="http://www.w3.org/2000/svg" xmlns:xlink="http://www.w3.org/1999/xlink">
    <!-- Generator: Sketch 50 (54983) - http://www.bohemiancoding.com/sketch -->
    <title>ic_review</title>
    <desc>Created with Sketch.</desc>
    <defs></defs>
    <g id="ic_review" stroke="none" stroke-width="1" fill="none" fill-rule="evenodd">
        <g id="Group-39-Copy-4">
            <rect id="boundry" x="0" y="0" width="24" height="24"></rect>
            <g id="ic_review" transform="translate(4.000000, 5.000000)" fill="#FFFFFF" fill-rule="nonzero">
                <path d="M14.1697129,0 L1.83028705,0 C0.856733234,0 0.0675119272,0.789221307 0.0675119272,1.76277513 L0.0675119272,9.6952632 C0.0675119272,10.668817 0.856733234,11.4580383 1.83028705,11.4580383 L7.11861244,11.4580383 L10.9614622,14.6574752 C11.2244113,14.8764933 11.5903697,14.9235077 11.9001407,14.7780665 C12.2099116,14.6326253 12.4074943,14.3210214 12.4069378,13.9788068 L12.4069378,11.4580383 L14.1697129,11.4580383 C15.1432668,11.4580383 15.9324881,10.668817 15.9324881,9.6952632 L15.9324881,1.76277513 C15.9324881,0.789221307 15.1432668,0 14.1697129,0 Z M14.1697129,9.6952632 L10.6441627,9.6952632 L10.6441627,12.1014512 L7.75321148,9.6952632 L1.83028705,9.6952632 L1.83028705,1.76277513 L14.1697129,1.76277513 L14.1697129,9.6952632 Z"></path>
            </g>
        </g>
    </g>
</svg>