<svg id="Layer_1" data-name="Layer 1" xmlns="http://www.w3.org/2000/svg" xmlns:xlink="http://www.w3.org/1999/xlink" viewBox="0 0 16 16"><defs><style>.cls-1{fill:none;}.cls-2{clip-path:url(#clip-path);}.cls-3{clip-path:url(#clip-path-2);}.cls-4{fill:#333;}</style><clipPath id="clip-path"><path class="cls-1" d="M7.92,10.71A2.11,2.11,0,1,1,10,8.61,2.11,2.11,0,0,1,7.92,10.71Zm0-5.41a3.3,3.3,0,1,0,3.3,3.3A3.31,3.31,0,0,0,7.92,5.3Zm6.22,6.89a.77.77,0,0,1-.77.77H2.46a.77.77,0,0,1-.77-.77V5.3a.77.77,0,0,1,.77-.77h3l.82-1.45H9.5l.82,1.45h3a.77.77,0,0,1,.77.77Zm-.77-8.85H11L10.2,1.89H5.63L4.81,3.34H2.46a2,2,0,0,0-2,2v6.89a2,2,0,0,0,2,2h10.9a2,2,0,0,0,2-2V5.3A2,2,0,0,0,13.37,3.34Z"/></clipPath><clipPath id="clip-path-2"><rect class="cls-1" x="-3.21" y="-2.75" width="22.25" height="22.25"/></clipPath></defs><title>icon-photo</title><g class="cls-2"><g class="cls-3"><rect class="cls-4" x="-6.45" y="-5.07" width="28.74" height="26.18"/></g></g></svg>