<?xml version="1.0" encoding="UTF-8"?>
<svg width="19px" height="19px" viewBox="0 0 19 19" version="1.1" xmlns="http://www.w3.org/2000/svg" xmlns:xlink="http://www.w3.org/1999/xlink">
    <!-- Generator: Sketch 46.1 (44463) - http://www.bohemiancoding.com/sketch -->
    <title>Group 39 Copy 4</title>
    <desc>Created with Sketch.</desc>
    <defs></defs>
    <g id="Page-1" stroke="none" stroke-width="1" fill="none" fill-rule="evenodd">
        <g id="Artboard-Copy-2" transform="translate(-50.000000, -554.000000)">
            <g id="Group-9" transform="translate(48.000000, 547.000000)">
                <g id="Group-39-Copy-4" transform="translate(0.000000, 4.000000)">
                    <rect id="boundry" x="0" y="0" width="24" height="24"></rect>
                    <g id="Group-23-Copy" transform="translate(11.960155, 11.960155) rotate(45.000000) translate(-11.960155, -11.960155) translate(5.460155, 2.960155)">
                        <g id="Group-42" transform="translate(0.565634, -0.000086)">
                            <path d="M1,4.23686384 L1,16 C1,16.5522847 1.44771525,17 2,17 L10,17 C10.5522847,17 11,16.5522847 11,16 L11,4.31096383 L9.65103691,1.55975554 C9.48305062,1.21714773 9.134734,1 8.75315896,1 L3.23618407,1 C2.85738175,1 2.5110964,1.21403622 2.34171932,1.55286154 L1,4.23686384 Z" id="Rectangle-13" stroke="#333333" stroke-width="2"></path>
                            <rect id="Rectangle-16" fill="#333333" x="4" y="4" width="4" height="4" rx="2"></rect>
                        </g>
                    </g>
                </g>
            </g>
        </g>
    </g>
</svg>