<?xml version="1.0" encoding="utf-8"?>
<!-- Generator: Adobe Illustrator 21.0.2, SVG Export Plug-In . SVG Version: 6.00 Build 0)  -->
<svg version="1.1" id="Layer_1" xmlns="http://www.w3.org/2000/svg" xmlns:xlink="http://www.w3.org/1999/xlink" x="0px" y="0px"
	 viewBox="0 0 14 16" style="enable-background:new 0 0 14 16;" xml:space="preserve">
<style type="text/css">
	.st0{fill:none;stroke:#333333;stroke-width:1.5;}
</style>
<title>Stroke 4</title>
<desc>Created with Sketch.</desc>
<g id="Brand-Fonts">
	<g id="Desktop-Copy-39" transform="translate(-59.000000, -2697.000000)">
		<g id="Group-62" transform="translate(56.000000, 2663.000000)">
			<g id="Page-1" transform="translate(0.000000, 32.000000)">
				<path id="Stroke-4" class="st0" d="M15.7,10.6c-0.3,0.3-0.6,0.4-0.9,0.4c-0.1,0-0.2,0-0.3,0l0,0.1c0.7,0.2,1.1,0.8,1,1.5
					s-0.6,1.2-1.3,1.2c-0.1,0-0.1,0-0.2,0l0,0.1c0.6,0.2,1,0.9,0.8,1.5s-0.7,1.1-1.3,1.1h-9c-0.1,0-0.2,0-0.3-0.1s-0.1-0.2-0.1-0.3
					v-5.5c0-0.1,0-0.2,0.1-0.3C4.3,10,4.4,10,4.5,10h1.8L10,3.7c1.3,0.8,1.7,2.4,1,3.7l-0.5,0.8h4.4c0.7,0.1,1.2,0.8,1.2,1.5
					C16.1,10,16,10.3,15.7,10.6z"/>
			</g>
		</g>
	</g>
</g>
</svg>
