<?xml version="1.0" encoding="UTF-8"?>
<svg width="88px" height="16px" viewBox="0 0 88 16" version="1.1" xmlns="http://www.w3.org/2000/svg" xmlns:xlink="http://www.w3.org/1999/xlink">
    <!-- Generator: Sketch 45 (43475) - http://www.bohemiancoding.com/sketch -->
    <title>Ratings/4.5 stars</title>
    <desc>Created with Sketch.</desc>
    <defs></defs>
    <g id="Brand-Fonts" stroke="none" stroke-width="1" fill="none" fill-rule="evenodd">
        <g id="Desktop-Copy-39" transform="translate(-62.000000, -824.000000)">
            <g id="Ratings/4.5-stars" transform="translate(62.000000, 824.000000)">
                <g id="Ratings-" transform="translate(0.000000, -0.000000)">
                    <path d="M3.21251641,15.9843289 C3.14993461,15.9843289 3.10821404,15.9738817 3.08735344,15.952987 C2.98305044,15.8903031 2.95176001,15.8171729 2.99348121,15.7335943 L3.869622,10.2174337 L0.0834421652,6.3310479 C-2.31783047e-07,6.24746929 -0.0208605181,6.16389194 0.0208606804,6.08031333 C0.0417212796,6.01762937 0.104302139,5.96539353 0.208605135,5.92360422 L5.46544986,5.14005869 L7.7809648,0.125367285 C7.8644072,0.0417886772 7.9374182,0 8,0 C8.104303,0 8.177314,0.0417886772 8.2190352,0.125367285 L10.5658409,5.14005869 L15.7913949,5.92360422 C15.8748373,5.94449887 15.9374181,5.99673472 15.9791393,6.08031333 C16.0208605,6.16389194 16.0000002,6.24746929 15.9165578,6.3310479 L12.130378,10.2174337 L13.0378095,15.7335943 C13.0378095,15.8171729 13.0065191,15.8903031 12.9439373,15.952987 C12.8396343,16.015671 12.7561932,16.015671 12.6936114,15.952987 L8,13.3829577 L3.33767938,15.952987 C3.31681878,15.9738817 3.27509821,15.9843289 3.21251641,15.9843289 L3.21251641,15.9843289 Z" id="Path-Copy" fill="#FA3C32"></path>
                    <path d="M21.2125164,15.9843289 C21.1499346,15.9843289 21.108214,15.9738817 21.0873534,15.952987 C20.9830504,15.8903031 20.95176,15.8171729 20.9934812,15.7335943 L21.869622,10.2174337 L18.0834422,6.3310479 C17.9999998,6.24746929 17.9791395,6.16389194 18.0208607,6.08031333 C18.0417213,6.01762937 18.1043021,5.96539353 18.2086051,5.92360422 L23.4654499,5.14005869 L25.7809648,0.125367285 C25.8644072,0.0417886772 25.9374182,0 26,0 C26.104303,0 26.177314,0.0417886772 26.2190352,0.125367285 L28.5658409,5.14005869 L33.7913949,5.92360422 C33.8748373,5.94449887 33.9374181,5.99673472 33.9791393,6.08031333 C34.0208605,6.16389194 34.0000002,6.24746929 33.9165578,6.3310479 L30.130378,10.2174337 L31.0378095,15.7335943 C31.0378095,15.8171729 31.0065191,15.8903031 30.9439373,15.952987 C30.8396343,16.015671 30.7561932,16.015671 30.6936114,15.952987 L26,13.3829577 L21.3376794,15.952987 C21.3168188,15.9738817 21.2750982,15.9843289 21.2125164,15.9843289 L21.2125164,15.9843289 Z" id="Path-Copy" fill="#FA3C32"></path>
                    <path d="M39.2125164,15.9843289 C39.1499346,15.9843289 39.108214,15.9738817 39.0873534,15.952987 C38.9830504,15.8903031 38.95176,15.8171729 38.9934812,15.7335943 L39.869622,10.2174337 L36.0834422,6.3310479 C35.9999998,6.24746929 35.9791395,6.16389194 36.0208607,6.08031333 C36.0417213,6.01762937 36.1043021,5.96539353 36.2086051,5.92360422 L41.4654499,5.14005869 L43.7809648,0.125367285 C43.8644072,0.0417886772 43.9374182,0 44,0 C44.104303,0 44.177314,0.0417886772 44.2190352,0.125367285 L46.5658409,5.14005869 L51.7913949,5.92360422 C51.8748373,5.94449887 51.9374181,5.99673472 51.9791393,6.08031333 C52.0208605,6.16389194 52.0000002,6.24746929 51.9165578,6.3310479 L48.130378,10.2174337 L49.0378095,15.7335943 C49.0378095,15.8171729 49.0065191,15.8903031 48.9439373,15.952987 C48.8396343,16.015671 48.7561932,16.015671 48.6936114,15.952987 L44,13.3829577 L39.3376794,15.952987 C39.3168188,15.9738817 39.2750982,15.9843289 39.2125164,15.9843289 L39.2125164,15.9843289 Z" id="Path-Copy" fill="#FA3C32"></path>
                    <path d="M57.2125164,15.9843289 C57.1499346,15.9843289 57.108214,15.9738817 57.0873534,15.952987 C56.9830504,15.8903031 56.95176,15.8171729 56.9934812,15.7335943 L57.869622,10.2174337 L54.0834422,6.3310479 C53.9999998,6.24746929 53.9791395,6.16389194 54.0208607,6.08031333 C54.0417213,6.01762937 54.1043021,5.96539353 54.2086051,5.92360422 L59.4654499,5.14005869 L61.7809648,0.125367285 C61.8644072,0.0417886772 61.9374182,0 62,0 C62.104303,0 62.177314,0.0417886772 62.2190352,0.125367285 L64.5658409,5.14005869 L69.7913949,5.92360422 C69.8748373,5.94449887 69.9374181,5.99673472 69.9791393,6.08031333 C70.0208605,6.16389194 70.0000002,6.24746929 69.9165578,6.3310479 L66.130378,10.2174337 L67.0378095,15.7335943 C67.0378095,15.8171729 67.0065191,15.8903031 66.9439373,15.952987 C66.8396343,16.015671 66.7561932,16.015671 66.6936114,15.952987 L62,13.3829577 L57.3376794,15.952987 C57.3168188,15.9738817 57.2750982,15.9843289 57.2125164,15.9843289 L57.2125164,15.9843289 Z" id="Path-Copy" fill="#FA3C32"></path>
                    <g id="Icon/.5-Star" transform="translate(72.000000, 0.000000)">
                        <g>
                            <path d="M3.21251641,15.9843289 C3.14993461,15.9843289 3.10821404,15.9738817 3.08735344,15.952987 C2.98305044,15.8903031 2.95176001,15.8171729 2.99348121,15.7335943 L3.869622,10.2174337 L0.0834421652,6.3310479 C-2.31783047e-07,6.24746929 -0.0208605181,6.16389194 0.0208606804,6.08031333 C0.0417212796,6.01762937 0.104302139,5.96539353 0.208605135,5.92360422 L5.46544986,5.14005869 L7.7809648,0.125367285 C7.8644072,0.0417886772 7.9374182,0 8,0 C8.104303,0 8.177314,0.0417886772 8.2190352,0.125367285 L10.5658409,5.14005869 L15.7913949,5.92360422 C15.8748373,5.94449887 15.9374181,5.99673472 15.9791393,6.08031333 C16.0208605,6.16389194 16.0000002,6.24746929 15.9165578,6.3310479 L12.130378,10.2174337 L13.0378095,15.7335943 C13.0378095,15.8171729 13.0065191,15.8903031 12.9439373,15.952987 C12.8396343,16.015671 12.7561932,16.015671 12.6936114,15.952987 L8,13.3829577 L3.33767938,15.952987 C3.31681878,15.9738817 3.27509821,15.9843289 3.21251641,15.9843289 L3.21251641,15.9843289 Z" id="Star" fill="#E1E1E1"></path>
                            <path d="M3.08735344,15.952987 C2.98305044,15.8903031 2.95176001,15.8171729 2.99348121,15.7335943 L3.869622,10.2174337 L0.0834421652,6.3310479 C-2.31783047e-07,6.24746929 -0.0208605181,6.16389194 0.0208606804,6.08031333 C0.0417212796,6.01762937 0.104302139,5.96539353 0.208605135,5.92360422 L5.46544986,5.14005869 L7.7809648,0.125367285 C7.8644072,0.0417886772 7.87594123,1.13686838e-13 8,1.17239551e-13 C8.00138855,0.00411987305 8,13.3829577 8,13.3829577 L3.33767938,15.952987 C3.31681878,15.9738817 3.27509821,15.9843289 3.21251641,15.9843289 C3.14993461,15.9843289 3.10821404,15.9738817 3.08735344,15.952987 Z" fill="#FA3C32"></path>
                        </g>
                    </g>
                </g>
            </g>
        </g>
    </g>
</svg>