<?xml version="1.0" encoding="UTF-8"?>
<svg width="18px" height="16px" viewBox="0 0 18 16" version="1.1" xmlns="http://www.w3.org/2000/svg" xmlns:xlink="http://www.w3.org/1999/xlink">
    <!-- Generator: Sketch 50.2 (55047) - http://www.bohemiancoding.com/sketch -->
    <title>ic_sparkle</title>
    <desc>Created with Sketch.</desc>
    <defs></defs>
    <g id="Page-1" stroke="none" stroke-width="1" fill="none" fill-rule="evenodd">
        <g id="ic_sparkle" fill="#DA3743" fill-rule="nonzero">
            <path d="M10.5,1.5 L10.5,1 C10.5,0.44771525 10.9477153,0 11.5,0 C12.0522847,0 12.5,0.44771525 12.5,1 L12.5,1.5 C12.5,3.709139 14.290861,5.5 16.5,5.5 L17,5.5 C17.5522847,5.5 18,5.94771525 18,6.5 C18,7.0522847 17.5522847,7.5 17,7.5 L16.5,7.5 C14.290861,7.5 12.5,9.290861 12.5,11.5 L12.5,12 C12.5,12.5522847 12.0522847,13 11.5,13 C10.9477153,13 10.5,12.5522847 10.5,12 L10.5,11.5 C10.5,9.290861 8.709139,7.5 6.5,7.5 L6,7.5 C5.44771525,7.5 5,7.0522847 5,6.5 C5,5.94771525 5.44771525,5.5 6,5.5 L6.5,5.5 C8.709139,5.5 10.5,3.709139 10.5,1.5 Z M1.5,8 C0.67157288,8 0,7.3284271 0,6.5 C0,5.67157288 0.67157288,5 1.5,5 C2.32842712,5 3,5.67157288 3,6.5 C3,7.3284271 2.32842712,8 1.5,8 Z M6,12 L7,12 C7.5522847,12 8,12.4477153 8,13 C8,13.5522847 7.5522847,14 7,14 L6,14 L6,15 C6,15.5522847 5.55228475,16 5,16 C4.44771525,16 4,15.5522847 4,15 L4,14 L3,14 C2.44771525,14 2,13.5522847 2,13 C2,12.4477153 2.44771525,12 3,12 L4,12 L4,11 C4,10.4477153 4.44771525,10 5,10 C5.55228475,10 6,10.4477153 6,11 L6,12 Z M9.8177951,6.5 C10.4841844,6.9430742 11.0569258,7.5158156 11.5,8.1822049 C11.9430742,7.5158156 12.5158156,6.9430742 13.1822049,6.5 C12.5158156,6.0569258 11.9430742,5.48418437 11.5,4.81779512 C11.0569258,5.48418437 10.4841844,6.0569258 9.8177951,6.5 Z" id="Shape"></path>
        </g>
    </g>
</svg>