<?xml version="1.0" encoding="UTF-8"?>
<svg width="150px" height="34px" viewBox="0 0 150 34" version="1.1" xmlns="http://www.w3.org/2000/svg" xmlns:xlink="http://www.w3.org/1999/xlink">
    <!-- Generator: Sketch 46.1 (44463) - http://www.bohemiancoding.com/sketch -->
    <title>Logo_horizontal_FINAL_TM-RGB Copy 5</title>
    <desc>Created with Sketch.</desc>
    <defs>
        <polygon id="path-1" points="0.0584415584 0.612971429 149.976623 0.612971429 149.976623 33.9417143 0.0584415584 33.9417143"></polygon>
    </defs>
    <g id="Cross-Platform--DTP-rd1" stroke="none" stroke-width="1" fill="none" fill-rule="evenodd">
        <g id="Tablet_Default" transform="translate(-32.000000, -15.000000)">
            <g id="header">
                <g id="Logo_horizontal_FINAL_TM-RGB-Copy-5" transform="translate(32.000000, 15.000000)">
                    <g id="Group-3">
                        <mask id="mask-2" fill="white">
                            <use xlink:href="#path-1"></use>
                        </mask>
                        <g id="Clip-2"></g>
                        <path d="M0,17.306 C0,15.0017714 1.87305195,13.1327429 4.18441558,13.1327429 C6.49480519,13.1327429 8.36883117,15.0017714 8.36883117,17.306 C8.36883117,19.6112 6.49480519,21.4792571 4.18441558,21.4792571 C1.87305195,21.4792571 0,19.6112 0,17.306 L0,17.306 Z M29.3922078,21.4792571 C27.0818182,21.4792571 25.2077922,19.6112 25.2077922,17.306 C25.2077922,15.0017714 27.0818182,13.1327429 29.3922078,13.1327429 C31.7035714,13.1327429 33.5775974,15.0017714 33.5775974,17.306 C33.5775974,19.6112 31.7035714,21.4792571 29.3922078,21.4792571 L29.3922078,21.4792571 Z M29.3931818,0.612971429 C20.1487013,0.612971429 12.6545455,8.08714286 12.6545455,17.306 C12.6545455,26.5258286 20.1487013,34 29.3931818,34 C38.6376623,34 46.1308442,26.5258286 46.1308442,17.306 C46.1308442,8.08714286 38.6376623,0.612971429 29.3931818,0.612971429 L29.3931818,0.612971429 Z" id="Fill-1" fill="#DA3743" mask="url(#mask-2)"></path>
                    </g>
                    <path d="M148.057792,14.1041714 L148.528247,14.1041714 L148.830195,14.8308 L149.01039,15.3194286 L149.036688,15.3194286 L149.216883,14.8308 L149.512987,14.1041714 L149.976623,14.1041714 L149.976623,16.0470286 L149.623052,16.0470286 L149.623052,15.1882857 L149.667857,14.5306286 L149.641558,14.5306286 L149.172078,15.7468571 L148.869156,15.7468571 L148.398701,14.5306286 L148.373377,14.5306286 L148.418182,15.1882857 L148.418182,16.0470286 L148.057792,16.0470286 L148.057792,14.1041714 L148.057792,14.1041714 Z M146.718506,14.4422286 L146.080519,14.4422286 L146.080519,14.1041714 L147.749026,14.1041714 L147.749026,14.4422286 L147.105195,14.4422286 L147.105195,16.0470286 L146.718506,16.0470286 L146.718506,14.4422286 L146.718506,14.4422286 Z M135.206494,23.8670286 C135.45487,23.8670286 135.66526,23.6610857 135.66526,23.4133714 L135.66526,21.7337714 C135.66526,21.4860571 135.457792,21.2791429 135.209416,21.2791429 L135.13539,21.2791429 C134.92987,21.2791429 134.724351,21.0751429 134.724351,20.8701714 L134.724351,10.9178857 C134.724351,10.6905714 134.496429,10.4632571 134.269481,10.4632571 L132.592208,10.4632571 C132.364286,10.4632571 132.136364,10.6905714 132.136364,10.9178857 L132.136364,21.9416571 L132.143182,22.2292 C132.143182,23.0500571 132.966234,23.8699429 133.788312,23.8699429 L135.206494,23.8670286 L135.206494,23.8670286 Z M61.3957792,13.0929143 C63.6769481,13.0929143 65.6025974,15.0202286 65.6025974,17.3050286 C65.6025974,19.6112 63.7149351,21.4841143 61.3957792,21.4841143 C59.0873377,21.4841143 57.2094156,19.6112 57.2094156,17.3050286 C57.2094156,14.9823429 59.0873377,13.0929143 61.3957792,13.0929143 L61.3957792,13.0929143 Z M61.3957792,10.4389714 C57.6204545,10.4389714 54.5493506,13.5193714 54.5493506,17.3050286 C54.5493506,21.1363429 57.5551948,24.1370857 61.3957792,24.1370857 C65.2470779,24.1370857 68.2636364,21.1363429 68.2636364,17.3050286 C68.2636364,13.5193714 65.1818182,10.4389714 61.3957792,10.4389714 L61.3957792,10.4389714 Z M116.032792,21.1460571 C115.909091,21.4977143 115.162987,22.1582857 114.31461,22.1582857 C113.424351,22.1582857 112.926623,21.6210857 112.926623,20.8157714 C112.926623,19.9696571 113.527597,19.4528571 114.625325,19.4528571 C115.390909,19.4528571 116.032792,19.7423429 116.032792,19.7423429 L116.032792,21.1460571 L116.032792,21.1460571 Z M114.91461,14.1041714 C113.362013,14.1041714 111.850325,14.4966286 111.642857,14.5792 C111.436364,14.6413714 111.249351,14.8065143 111.333117,15.1581714 L111.53961,16.2316 C111.581494,16.5210857 111.767532,16.7474286 112.078247,16.6444571 C112.637338,16.4793143 113.900649,16.2937714 114.769481,16.2937714 C115.784416,16.2937714 116.136039,16.8717714 116.09513,18.0899429 C116.09513,18.0899429 115.225325,17.8218286 114.252273,17.8218286 C111.82987,17.8218286 110.441883,19.1225714 110.441883,20.8157714 C110.441883,22.8606286 111.767532,24.0788 113.672727,24.0788 C115.162987,24.0788 116.115584,23.4182286 116.674675,22.8810286 L116.674675,23.3939429 C116.674675,23.6416571 116.882143,23.8485714 117.130519,23.8485714 L117.299026,23.8485714 C117.316558,23.8514857 117.337013,23.8514857 117.358442,23.8514857 L118.061688,23.8514857 C118.311039,23.8514857 118.517532,23.6455429 118.517532,23.3978286 L118.517532,18.2550857 C118.517532,15.6536 117.896104,14.1041714 114.91461,14.1041714 L114.91461,14.1041714 Z M97.5321429,14.1041714 C95.7,14.1041714 94.8087662,15.0853143 94.4532468,15.4816571 L94.4532468,14.7657143 C94.4532468,14.5170286 94.2467532,14.3110857 93.9983766,14.3110857 L92.9142857,14.3110857 C92.6863636,14.3110857 92.4584416,14.4966286 92.4584416,14.7657143 L92.4584416,23.3978286 C92.4584416,23.6455429 92.6863636,23.8514857 92.9142857,23.8514857 L94.4464286,23.8514857 C94.9022727,23.8514857 95.0474026,23.7485143 95.0474026,23.3978286 L95.0474026,17.9452 C95.2753247,17.2846286 95.8753247,16.4589143 97.1181818,16.4589143 C98.2772727,16.4589143 98.774026,17.2224571 98.774026,18.462 L98.774026,23.3978286 C98.774026,23.6455429 98.9814935,23.8514857 99.2298701,23.8514857 L100.907143,23.8514857 C101.135065,23.8514857 101.362987,23.6455429 101.362987,23.3978286 L101.362987,18.462 C101.362987,16.1490286 100.575974,14.1041714 97.5321429,14.1041714 L97.5321429,14.1041714 Z M74.7340909,21.7250286 C73.5331169,21.7250286 72.7470779,21.1878286 72.7470779,21.1878286 L72.7470779,17.7800571 C72.9535714,17.2438286 73.6159091,16.4589143 74.8587662,16.4589143 C76.35,16.4589143 77.1155844,17.7596571 77.1155844,19.1021714 C77.1155844,20.4446857 76.3081169,21.7250286 74.7340909,21.7250286 L74.7340909,21.7250286 Z M75.2103896,14.1041714 C73.2438312,14.1041714 72.1529221,15.4437714 72.0876623,15.5263429 L72.0876623,14.7657143 C72.0876623,14.5170286 71.8801948,14.3110857 71.6318182,14.3110857 L70.613961,14.3110857 C70.3655844,14.3110857 70.1581169,14.5170286 70.1581169,14.7657143 L70.1581169,27.2796571 C70.1581169,27.5069714 70.3655844,27.7342857 70.613961,27.7342857 L72.2912338,27.7342857 C72.5191558,27.7342857 72.7470779,27.5069714 72.7470779,27.2796571 L72.7470779,23.6863429 C73.1814935,23.8514857 74.0922078,24.0788 75.0448052,24.0788 C77.9025974,24.0788 79.7863636,21.8901714 79.7863636,19.1021714 C79.7863636,16.2112 77.8198052,14.1041714 75.2103896,14.1041714 L75.2103896,14.1041714 Z M143.495455,17.8830286 C143.453571,16.9543429 142.708442,16.2316 141.652597,16.2316 C140.492532,16.2316 139.747403,16.9329714 139.623701,17.8830286 L143.495455,17.8830286 L143.495455,17.8830286 Z M141.714935,14.1041714 C144.198701,14.1041714 146.103896,15.9421143 146.103896,18.5232 C146.103896,18.6679429 146.083442,18.9982286 146.062987,19.1429714 C146.041558,19.3906857 145.813636,19.5762286 145.607143,19.5762286 L139.478571,19.5762286 C139.499026,20.7536 140.472078,21.7862286 141.859091,21.7862286 C142.811688,21.7862286 143.474026,21.4345714 143.909416,21.0838857 C144.137338,20.8983429 144.385714,20.8769714 144.530844,21.0838857 L145.338312,22.1573143 C145.503896,22.3438286 145.524351,22.5711429 145.296429,22.7770857 C144.468506,23.4794286 143.287987,24.0778286 141.73539,24.0778286 C138.877597,24.0778286 136.890584,21.8066286 136.890584,19.0808 C136.890584,16.3957714 138.877597,14.1041714 141.714935,14.1041714 L141.714935,14.1041714 Z M125.509091,21.7250286 C124.267208,21.7250286 123.60487,20.9401143 123.397403,20.4029143 L123.397403,16.9961143 C123.397403,16.9961143 124.184416,16.4589143 125.38539,16.4589143 C126.958442,16.4589143 127.766883,17.7392571 127.766883,19.0817714 C127.766883,20.4233143 127.000325,21.7250286 125.509091,21.7250286 L125.509091,21.7250286 Z M125.737013,14.1041714 C124.784416,14.1041714 123.831818,14.3314857 123.397403,14.5170286 L123.397403,10.8829143 C123.397403,10.6556 123.189935,10.4282857 122.941558,10.4282857 L121.264286,10.4282857 C121.037338,10.4282857 120.809416,10.6556 120.809416,10.8829143 L120.809416,23.3978286 C120.809416,23.6455429 121.037338,23.8514857 121.264286,23.8514857 L121.988961,23.8514857 C122.003571,23.8514857 122.017208,23.8514857 122.030844,23.8485714 L122.223701,23.8485714 C122.475974,23.8485714 122.683442,23.6416571 122.683442,23.3939429 L122.683442,22.6886857 L122.693182,22.6537143 C122.693182,22.6537143 123.790909,24.0788 125.882143,24.0788 C128.491558,24.0788 130.375325,21.8076 130.375325,19.0817714 C130.375325,16.2937714 128.574351,14.1041714 125.737013,14.1041714 L125.737013,14.1041714 Z M111.087662,10.4282857 L101.348377,10.4282857 C101.120455,10.4282857 100.95487,10.6148 100.95487,10.8207429 L100.95487,12.5139429 C100.95487,12.7208571 101.120455,12.9064 101.348377,12.9064 L104.861688,12.9064 L104.861688,23.4590286 C104.861688,23.6659429 105.047727,23.8514857 105.255195,23.8514857 L107.180844,23.8514857 C107.387338,23.8514857 107.574351,23.6659429 107.574351,23.4590286 L107.574351,12.9064 L111.087662,12.9064 C111.31461,12.9064 111.481169,12.7208571 111.481169,12.5139429 L111.481169,10.8207429 C111.481169,10.6148 111.31461,10.4282857 111.087662,10.4282857 L111.087662,10.4282857 Z M87.9029221,17.8830286 C87.862013,16.9543429 87.1168831,16.2316 86.0600649,16.2316 C84.900974,16.2316 84.1558442,16.9329714 84.0311688,17.8830286 L87.9029221,17.8830286 L87.9029221,17.8830286 Z M86.1224026,14.1041714 C88.6071429,14.1041714 90.5123377,15.9421143 90.5123377,18.5232 C90.5123377,18.6679429 90.4918831,18.9982286 90.4704545,19.1429714 C90.45,19.3906857 90.2220779,19.5762286 90.0155844,19.5762286 L83.886039,19.5762286 C83.9074675,20.7536 84.8805195,21.7862286 86.2675325,21.7862286 C87.2201299,21.7862286 87.8824675,21.4345714 88.3168831,21.0838857 C88.5448052,20.8983429 88.7931818,20.8769714 88.9383117,21.0838857 L89.7457792,22.1573143 C89.9113636,22.3438286 89.9318182,22.5711429 89.7048701,22.7770857 C88.875974,23.4794286 87.6964286,24.0778286 86.1428571,24.0778286 C83.286039,24.0778286 81.2980519,21.8066286 81.2980519,19.0808 C81.2980519,16.3957714 83.286039,14.1041714 86.1224026,14.1041714 L86.1224026,14.1041714 Z" id="Fill-4" fill="#333333"></path>
                </g>
            </g>
        </g>
    </g>
</svg>