<?xml version="1.0" encoding="UTF-8"?>
<svg width="18px" height="32px" viewBox="0 0 18 32" version="1.1" xmlns="http://www.w3.org/2000/svg" xmlns:xlink="http://www.w3.org/1999/xlink">
    <!-- Generator: Sketch 46.1 (44463) - http://www.bohemiancoding.com/sketch -->
    <title>Artboard</title>
    <desc>Created with Sketch.</desc>
    <defs></defs>
    <g id="Page-1" stroke="none" stroke-width="1" fill="none" fill-rule="evenodd">
        <g id="Artboard" fill-rule="nonzero">
            <g id="rating" transform="translate(1.000000, 0.000000)">
                <path d="M3.21251641,31.9843289 C3.14993461,31.9843289 3.10821404,31.9738817 3.08735344,31.952987 C2.98305044,31.8903031 2.95176001,31.8171729 2.99348121,31.7335943 L3.869622,26.2174337 L0.08344217,22.3310479 C-2.32e-07,22.2474693 -0.020860518,22.1638919 0.02086068,22.0803133 C0.04172128,22.0176294 0.10430214,21.9653935 0.20860513,21.9236042 L5.46544986,21.1400587 L7.7809648,16.1253673 C7.8644072,16.0417887 7.9374182,16 8,16 C8.104303,16 8.177314,16.0417887 8.2190352,16.1253673 L10.5658409,21.1400587 L15.7913949,21.9236042 C15.8748373,21.9444989 15.9374181,21.9967347 15.9791393,22.0803133 C16.0208605,22.1638919 16.0000002,22.2474693 15.9165578,22.3310479 L12.130378,26.2174337 L13.0378095,31.7335943 C13.0378095,31.8171729 13.0065191,31.8903031 12.9439373,31.952987 C12.8396343,32.015671 12.7561932,32.015671 12.6936114,31.952987 L8,29.3829577 L3.33767938,31.952987 C3.31681878,31.9738817 3.27509821,31.9843289 3.21251641,31.9843289 L3.21251641,31.9843289 Z" id="Path-Copy" fill="#DA3743"></path>
                <path d="M3.21251641,15.9843289 C3.14993461,15.9843289 3.10821404,15.9738817 3.08735344,15.952987 C2.98305044,15.8903031 2.95176001,15.8171729 2.99348121,15.7335943 L3.869622,10.2174337 L0.08344217,6.3310479 C-2.32e-07,6.24746929 -0.020860518,6.16389194 0.02086068,6.08031333 C0.04172128,6.01762937 0.10430214,5.96539353 0.20860513,5.92360422 L5.46544986,5.14005869 L7.7809648,0.125367285 C7.8644072,0.0417886772 7.9374182,0 8,0 C8.104303,0 8.177314,0.0417886772 8.2190352,0.125367285 L10.5658409,5.14005869 L15.7913949,5.92360422 C15.8748373,5.94449887 15.9374181,5.99673472 15.9791393,6.08031333 C16.0208605,6.16389194 16.0000002,6.24746929 15.9165578,6.3310479 L12.130378,10.2174337 L13.0378095,15.7335943 C13.0378095,15.8171729 13.0065191,15.8903031 12.9439373,15.952987 C12.8396343,16.015671 12.7561932,16.015671 12.6936114,15.952987 L8,13.3829577 L3.33767938,15.952987 C3.31681878,15.9738817 3.27509821,15.9843289 3.21251641,15.9843289 L3.21251641,15.9843289 Z" id="Path-Copy-2" fill="#E1E1E1"></path>
            </g>
        </g>
    </g>
</svg>