<?xml version="1.0" encoding="UTF-8"?>
<svg width="12px" height="12px" viewBox="0 0 12 12" version="1.1" xmlns="http://www.w3.org/2000/svg" xmlns:xlink="http://www.w3.org/1999/xlink">
    <!-- Generator: Sketch 50 (54983) - http://www.bohemiancoding.com/sketch -->
    <title>Icon/Full Star</title>
    <desc>Created with Sketch.</desc>
    <defs></defs>
    <g id="Home:-Unsigned-in" stroke="none" stroke-width="1" fill="none" fill-rule="evenodd">
        <g id="Restaurant-Groupings" transform="translate(-628.000000, -3194.000000)" fill="#DA3743">
            <g id="Group-23-Copy" transform="translate(628.000000, 3193.000000)">
                <g id="Star-Ratings/4.25-Stars-Copy-4" transform="translate(0.000000, 1.000000)">
                    <g id="Icon/Full-Star-12">
                        <path d="M2.40938731,11.9882466 C2.36245096,11.9882466 2.33116053,11.9804113 2.31551508,11.9647403 C2.23728783,11.9177273 2.21382001,11.8628797 2.24511091,11.8001957 L2.9022165,7.6630753 L0.0625816239,4.74828592 C-1.73837286e-07,4.68560197 -0.0156453886,4.62291895 0.0156455103,4.560235 C0.0312909597,4.51322203 0.078226604,4.47404514 0.156453851,4.44270317 L4.0990874,3.85504402 L5.8357236,0.0940254638 C5.8983054,0.0313415079 5.95306365,0 6,0 C6.07822725,0 6.1329855,0.0313415079 6.1642764,0.0940254638 L7.92438066,3.85504402 L11.8435461,4.44270317 C11.9061279,4.45837416 11.9530636,4.49755104 11.9843545,4.560235 C12.0156454,4.62291895 12.0000002,4.68560197 11.9374184,4.74828592 L9.0977835,7.6630753 L9.77835715,11.8001957 C9.77835715,11.8628797 9.75488933,11.9177273 9.70795298,11.9647403 C9.62972573,12.0117532 9.56714487,12.0117532 9.52020852,11.9647403 L6,10.0372183 L2.50325953,11.9647403 C2.48761408,11.9804113 2.45632365,11.9882466 2.40938731,11.9882466 L2.40938731,11.9882466 Z" id="Icon/Full-Star"></path>
                    </g>
                </g>
            </g>
        </g>
    </g>
</svg>